<?xml version="1.0" encoding="UTF-8" standalone="yes"?>
<svg version="1.1" width="64" height="64" color-interpolation="linearRGB"
     xmlns:svg="http://www.w3.org/2000/svg" xmlns="http://www.w3.org/2000/svg">
 <g>
  <path style="fill:#303c42"
        d="M60.31 27.98L33.43 1.1C31.91 -0.34 29.52 -0.34 28 1.1L22.88 6.22C22.38 6.72 22.38 7.53 22.88 8.03L27.49 12.8C27.85 13.16 28.4 13.27 28.87 13.08C31.51 12.06 34.47 13.37 35.49 16.01C35.73 16.62 35.84 17.26 35.84 17.92C35.83 18.57 35.7 19.21 35.45 19.81C35.26 20.29 35.37 20.83 35.73 21.19L40.24 25.6C40.6 25.96 41.14 26.07 41.62 25.88C44.25 24.83 47.23 26.11 48.27 28.74C49.32 31.37 48.04 34.34 45.41 35.39C42.78 36.44 39.8 35.15 38.76 32.53C38.53 31.95 38.4 31.34 38.4 30.71C38.4 30.09 38.52 29.48 38.75 28.9C38.93 28.43 38.82 27.9 38.47 27.54L34.17 23.21C33.67 22.72 32.86 22.73 32.36 23.23C32.13 23.47 32 23.78 32 24.11V37.63C31.99 38.14 32.3 38.6 32.76 38.8C35.35 39.94 36.54 42.95 35.41 45.55C34.28 48.14 31.26 49.32 28.67 48.19C26.08 47.06 24.89 44.04 26.02 41.45C26.54 40.27 27.48 39.32 28.67 38.8C29.13 38.6 29.44 38.14 29.44 37.63V23.75C29.44 23.24 29.13 22.78 28.67 22.57C26.15 21.47 24.95 18.58 25.95 16.02C26.11 15.54 25.97 15 25.6 14.66L20.96 9.93C20.46 9.42 19.64 9.42 19.14 9.93L1.22 27.85C-0.26 29.35 -0.26 31.78 1.22 33.27L28.1 60.18C29.6 61.68 32.03 61.68 33.53 60.18L60.41 33.27C61.91 31.78 61.91 29.35 60.41 27.85L60.31 27.98z"
  />
 </g>
</svg>
